# xmcd
# 
# Track frame offsets:
#     150
#     14675
#     29187
#     40040
# 
# Disc length: 899
# 
# Revision: 1
# Processed by: cddbd v1.5.2PL0 Copyright (c) Steve Scherf et al.
# Submitted via: fre:ac v1.0.31
# 
DISCID=30038104
DTITLE=NUMBER GIRL - NUM-AMI-DABUTZ
DYEAR=2002
DGENRE=不明
TTITLE0=NUM-AMI-DABUTZ
TTITLE1=FIGHT FIGHT
TTITLE2=MACHIGAI
TTITLE3=MUKAI NIGHT
EXTD=YEAR: 2002
EXTT0=
EXTT1=
EXTT2=
EXTT3=
PLAYORDER=
